<?xml version="1.0" encoding="utf-8"?>
<!-- Generator: Adobe Illustrator 27.7.0, SVG Export Plug-In . SVG Version: 6.00 Build 0)  -->
<svg version="1.1" id="Capa_1" xmlns="http://www.w3.org/2000/svg" xmlns:xlink="http://www.w3.org/1999/xlink" x="0px" y="0px"
	 viewBox="0 0 120 120" style="enable-background:new 0 0 120 120;" xml:space="preserve">
<style type="text/css">
	.st0{fill:#11111F;}
	.st1{fill:#3B9D81;}
	.st2{fill:#87BE4B;}
	.st3{fill:#00272E;}
	.st4{fill:#FAB903;}
	.st5{fill:#EFAD1F;}
	.st6{fill:#FFFFFF;}
	.st7{fill:#84BC26;}
	.st8{fill:#000502;}
</style>
<g>
	<g>
		<rect x="2" y="117.1" class="st0" width="115.4" height="1.2"/>
	</g>
	<g>
		<g>
			<g>
				<path class="st1" d="M99.3,10.4c-0.8,0.9-1,2.9-1,2.9l-1.1,1.4c0,0,0.4-3.3-0.4-2.2c-0.8,1.1,0.1,2.5,0.1,2.5
					c-1.7,2.7-4.2,7.7-4.2,7.7l0.2,0.1c1.2-2.8,3.6-6.7,3.6-6.7c1.2,0.6,2.9-0.4,2.6-1s-0.9-0.3-1.3,0.1s-1.1,0.5-1.1,0.5
					c0.8-1.3,1.8-2.4,1.8-2.4s2.1-0.9,2.5-2C101.5,10.3,100.2,9.5,99.3,10.4z"/>
			</g>
			<g>
				<path class="st2" d="M109.5,20.6c-0.3-0.3-1-0.2-1.2,0.7c-0.3,0.9,0.1,1.5-0.2,2.4c-0.3,0.9-1.1,2.8-1.1,2.8s0.3-1.5,0.3-2.2
					s-0.8-1-0.9,0.5c-0.1,1.5,0.2,2.7,0.2,2.7c-0.9,3.1-4.8,4.5-4.8,4.5l0,0.3c4.9-1.8,5.5-5.6,5.5-5.6s1.1,0,2-0.8
					c0.9-0.8-0.1-1.6-0.6-1.2c-0.4,0.4-1.2,1-1.2,1c0.5-1.5,0.6-1.4,1.4-2.7C109.8,21.9,109.8,20.9,109.5,20.6z"/>
			</g>
			<g>
				<g>
					<path class="st1" d="M105.2,30.6c-2.9,2.5-8.9,4.3-8.9,4.3l-1.6,4.7c0,0,7.6-0.1,13-4.2S108.7,27.6,105.2,30.6z"/>
				</g>
				<g>
					<path class="st3" d="M95.2,37.3l0,0.2c6.7-0.5,12.4-5.6,12.5-5.7l-0.1-0.1C107.6,31.7,101.9,36.9,95.2,37.3z"/>
				</g>
				<g>
					<path class="st3" d="M105.6,33.4l0,0.2c0,0,0.6,0.1,1.2,0.1c0.4,0,0.8,0,1.1-0.2l-0.1-0.2C107,33.7,105.6,33.4,105.6,33.4z"/>
				</g>
				<g>
					<path class="st3" d="M103.2,34.9h0.2c0,0,0.1-1.8,0.6-2.5l-0.1-0.1C103.2,33,103.2,34.8,103.2,34.9z"/>
				</g>
				<g>
					<path class="st3" d="M101.5,35.7l-0.1,0.2c0.1,0,1.8,0.6,3,0.6c0.2,0,0.3,0,0.4,0l0-0.2C103.7,36.5,101.5,35.7,101.5,35.7z"/>
				</g>
				<g>
					<path class="st3" d="M99.3,36.7l0.2-0.1c0,0-0.5-1.4,0.9-2.7l-0.1-0.1C98.8,35.1,99.3,36.6,99.3,36.7z"/>
				</g>
				<g>
					<path class="st3" d="M97.4,37.1l-0.2,0.1c0,0,0.6,1.4,2.5,1.4c0.2,0,0.4,0,0.6,0l0-0.2C98,38.7,97.4,37.2,97.4,37.1z"/>
				</g>
			</g>
			<g>
				<g>
					<path class="st2" d="M90.9,30.3l4.3,4.5c0,0,5.1,1.2,8.2-3.8c3.1-5,2.7-14.5,2.7-14.5S91,19,90.9,30.3z"/>
				</g>
				<g>
					<path d="M93.8,30.9L94,31c3-5.2,11.7-13.5,11.8-13.6l-0.1-0.1C105.5,17.3,96.8,25.7,93.8,30.9z"/>
				</g>
				<g>
					<path d="M103.2,19.7l0,0.2c0.1,0,1.7-0.2,2.3-0.5l-0.1-0.1C104.8,19.5,103.2,19.7,103.2,19.7z"/>
				</g>
				<g>
					<path d="M101.3,21.6l0,0.2c0.1,0,2.7-0.3,3.8-0.6l-0.1-0.1C104,21.3,101.3,21.6,101.3,21.6z"/>
				</g>
				<g>
					<path d="M99.6,23.5v0.2c0,0,3.2,0,5.4-0.5l0-0.2C102.8,23.5,99.6,23.5,99.6,23.5z"/>
				</g>
				<g>
					<path d="M97.9,25.4l0,0.2c0,0,0.9,0.2,2.6,0.2c1.1,0,2.5-0.1,4.2-0.3l0-0.2C100.3,25.9,97.9,25.4,97.9,25.4z"/>
				</g>
				<g>
					<path d="M96.2,27.6l-0.1,0.1c0,0,1.6,0.9,4.3,0.9c0.9,0,1.9-0.1,3.1-0.4l0-0.2C98.8,29.1,96.2,27.6,96.2,27.6z"/>
				</g>
				<g>
					<path d="M94.6,29.8l-0.1,0.1c0,0,1.9,1.7,5.1,1.7c0.7,0,1.4-0.1,2.3-0.3l0-0.2C97.3,32.2,94.6,29.8,94.6,29.8z"/>
				</g>
				<g>
					<g>
						<path d="M102.1,20.8l0.2,0c0,0,0.3-2,0.6-2.7l-0.2-0.1C102.4,18.8,102.1,20.8,102.1,20.8z"/>
					</g>
					<g>
						<path d="M100.3,22.5l0.2,0c0,0,0.6-2.5,1-3.6l-0.2-0.1C100.9,20,100.3,22.5,100.3,22.5z"/>
					</g>
					<g>
						<path d="M98.7,24.5l0.2,0c0,0,0.5-2.8,1.2-4.9l-0.2,0C99.2,21.6,98.7,24.5,98.7,24.5z"/>
					</g>
					<g>
						<path d="M98.1,20.3c-1.1,4.1-1,6-1,6.1l0.2,0c0,0-0.1-1.9,1-6L98.1,20.3z"/>
					</g>
					<g>
						<path d="M95.8,22.1c-1.3,4.4-0.4,6.2-0.4,6.3l0.1-0.1c0,0-0.8-1.8,0.4-6.1L95.8,22.1z"/>
					</g>
					<g>
						<path d="M93.4,24.4l-0.2,0c-1.2,4.3,0.5,6.6,0.5,6.6l0.1-0.1C93.9,30.9,92.3,28.6,93.4,24.4z"/>
					</g>
				</g>
			</g>
			<g>
				<g>
					<path class="st2" d="M80.2,34.5l-2.3,4.2c0,0-3.5,1.9-6.7-1.2s-4.8-10.2-4.8-10.2S77.9,26.2,80.2,34.5z"/>
				</g>
				<g>
					<path d="M78.1,35.5L78.1,35.5c-3.3-3.2-11.3-7.7-11.3-7.7l0.1-0.1C66.9,27.8,74.9,32.2,78.1,35.5z"/>
				</g>
				<g>
					<path d="M69.1,29.1l0,0.1c-0.1,0-1.3,0.1-1.8,0.1l0-0.1C67.8,29.2,69,29.1,69.1,29.1z"/>
				</g>
				<g>
					<path d="M70.8,30.1l0,0.1c-0.1,0-2.1,0.3-2.9,0.3v-0.1C68.7,30.4,70.8,30.1,70.8,30.1z"/>
				</g>
				<g>
					<path d="M72.4,31.1l0,0.1c0,0-2.4,0.6-4.1,0.7v-0.1C70.1,31.8,72.4,31.2,72.4,31.1z"/>
				</g>
				<g>
					<path d="M74,32.2l0.1,0.1c0,0-0.6,0.3-1.9,0.6c-0.8,0.2-1.8,0.4-3.1,0.5l0-0.1C72.4,33.1,74,32.3,74,32.2z"/>
				</g>
				<g>
					<path d="M75.7,33.5L75.7,33.5c0.1,0.1-0.9,1.1-2.9,1.6c-0.7,0.2-1.4,0.3-2.3,0.3v-0.1C74.1,35.2,75.7,33.5,75.7,33.5z"/>
				</g>
				<g>
					<path d="M77.3,34.9L77.3,34.9c0.1,0.1-1,1.7-3.3,2.3c-0.5,0.1-1.1,0.2-1.7,0.2v-0.1C75.8,37.2,77.3,34.9,77.3,34.9z"/>
				</g>
				<g>
					<g>
						<path d="M70.1,29.7l-0.1,0c0,0-0.6-1.4-0.9-1.9l0.1-0.1C69.5,28.2,70,29.6,70.1,29.7z"/>
					</g>
					<g>
						<path d="M71.7,30.6l-0.1,0.1c0,0-0.9-1.8-1.4-2.5l0.1-0.1C70.8,28.8,71.7,30.6,71.7,30.6z"/>
					</g>
					<g>
						<path d="M73.2,31.7l-0.1,0c0,0-0.9-2-1.8-3.4l0.1-0.1C72.4,29.7,73.2,31.7,73.2,31.7z"/>
					</g>
					<g>
						<path d="M72.9,28.6c1.6,2.9,1.9,4.3,1.9,4.3l-0.1,0c0,0-0.3-1.4-1.9-4.2L72.9,28.6z"/>
					</g>
					<g>
						<path d="M74.9,29.5c1.8,3,1.5,4.5,1.5,4.5l-0.1,0c0,0,0.3-1.5-1.5-4.5L74.9,29.5z"/>
					</g>
					<g>
						<path d="M77.1,30.7L77.1,30.7c1.8,2.9,1,4.9,1,4.9l-0.1,0C78,35.5,78.8,33.5,77.1,30.7z"/>
					</g>
				</g>
			</g>
			<g>
				<g>
					<g>
						<path class="st2" d="M82.7,24c-1.3-1.7-2.8-3.4-3.9-5.2c-0.9-1.5-1.6-3.2-1.9-4.9c-0.3-1.8-0.4-3.9-0.9-5.7
							c-0.6-1.9-3.1-5-3.1-5c0,0.1,1.7,3,2.3,4.9c0.6,1.7,1.1,3.5,1.3,5.3c0.3,1.6,0.7,3.1,1.5,4.6c0.9,1.8,2.2,3.3,3.4,4.8
							c0.7,0.9,1.5,1.8,2.2,2.8c0.7,1,1.3,1.9,0.9,3.1c0,0,0.1,0.1,0.1,0c0.3-0.7,0.2-1.5-0.1-2.1C84.1,25.6,83.4,24.8,82.7,24z"/>
					</g>
				</g>
				<g>
					<g>
						<path class="st2" d="M73.3,20.3c1,0.4,2.1,0.3,3.1,0.1c1-0.2,2.1-0.5,3.1-0.4l0.1,0C77.6,18.9,75.1,19,73.3,20.3z"/>
					</g>
					<g>
						<path class="st2" d="M77.9,17.2c0.1,0,0.1,0.1,0.2,0.1L77.9,17.2C77.9,17.2,77.9,17.2,77.9,17.2z"/>
					</g>
					<g>
						<path class="st2" d="M75.5,16.8c-0.4,0-0.9,0-1.3,0.2c-0.8,0.3-1.4,1-2,1.6c1.2-0.4,2.6-0.3,3.8-0.7c0.6-0.2,1.2-0.6,1.9-0.6
							C77.2,16.7,76.3,16.7,75.5,16.8z"/>
					</g>
					<g>
						<path class="st2" d="M70.7,12.4c2,1.3,4.1,2.7,6.4,2.9L77,15.2C75,14,73,12.9,70.7,12.4z"/>
					</g>
					<g>
						<path class="st2" d="M74.8,11.8c-0.6-0.1-1.3,0-1.9,0.1c-0.6,0.1-1.1,0.2-1.7,0.2c1.4-0.1,2.7,0.8,4.1,0.7
							c0.4,0,0.9-0.1,1.3-0.1l-0.2-0.2C76,12.1,75.4,11.9,74.8,11.8z"/>
					</g>
					<g>
						<path class="st2" d="M71.1,12.2c-0.1,0-0.3,0-0.4,0.1C70.9,12.2,71,12.2,71.1,12.2z"/>
					</g>
					<g>
						<path class="st2" d="M76.1,10.5c-1.5-1.2-3.1-2.3-4.7-3.3c0.3,0.9,0.8,1.8,1.6,2.3c0.5,0.4,1.1,0.6,1.6,0.8
							c0.6,0.2,1.1,0.5,1.7,0.7l0.2,0.1C76.5,10.9,76.3,10.7,76.1,10.5z"/>
					</g>
					<g>
						<path class="st2" d="M78.5,11.1c-0.8,0.4-1.4,1.1-1.8,1.8c0.8-0.2,1.6-0.3,2.3-0.6c0.8-0.3,1.5-0.8,2-1.5
							C80.2,10.5,79.3,10.6,78.5,11.1z"/>
					</g>
					<g>
						<path class="st2" d="M76.7,12.9C76.7,12.9,76.7,12.9,76.7,12.9C76.7,12.9,76.7,12.9,76.7,12.9L76.7,12.9z"/>
					</g>
					<g>
						<path class="st2" d="M77,15.3c0.1,0,0.1,0,0.2-0.1c0,0,0,0,0,0L77,15.3z"/>
					</g>
					<g>
						<path class="st2" d="M79.9,13.5c-1,0.5-1.8,1.4-2.8,1.7c0,0,0.1,0,0.1,0c2.4,0.3,5-0.5,6.7-2.3C82.6,12.9,81.2,12.9,79.9,13.5
							z"/>
					</g>
					<g>
						<path class="st2" d="M77.1,15.2C77.1,15.2,77.1,15.2,77.1,15.2L77.1,15.2C77.2,15.2,77.1,15.2,77.1,15.2z"/>
					</g>
					<g>
						<path class="st2" d="M79.4,15.5c-0.4,0.6-0.9,1.3-1.6,1.6l0.2-0.1c0.5,0.1,1,0,1.4-0.2c0.4-0.2,0.8-0.6,1.1-1
							c0.7-0.8,1.3-1.6,1.8-2.6C81.2,13.5,80.2,14.5,79.4,15.5z"/>
					</g>
					<g>
						<path class="st2" d="M79.5,19.9L79.5,19.9C79.4,19.9,79.4,19.9,79.5,19.9L79.5,19.9z"/>
						<path class="st2" d="M80.6,17.9c-0.3,0.7-0.5,1.6-1.1,2c0.5,0,0.9-0.2,1.3-0.5c0.3-0.3,0.6-0.8,0.8-1.2c0.5-0.9,1-1.8,1.6-2.7
							C82.1,16.1,81.1,16.9,80.6,17.9z"/>
					</g>
					<g>
						<path class="st2" d="M79.2,21.4c-0.5,0.2-1,0.5-1.5,0.7c-0.6,0.3-1.2,0.5-1.8,0.7c0.2,0,0.4,0.1,0.5,0.1c1.6,0,3-1,4.6-1.1
							l-0.2-0.3C80.3,21.1,79.7,21.2,79.2,21.4z"/>
					</g>
					<g>
						<path class="st2" d="M81,21.8L81,21.8c0.7-0.1,1.1-0.6,1.5-1.1s0.6-1.1,0.9-1.7c0.3-0.7,0.6-1.5,0.7-2.2
							c-1,1.1-1.9,2.3-2.7,3.5C81.1,20.8,80.8,21.3,81,21.8z"/>
					</g>
					<g>
						<path class="st2" d="M84.7,21.9c-0.9,0.2-1.8,0.6-2.4,1.2l-0.1,0.2c0.4-0.3,1-0.3,1.6-0.4c1.3,0,2.5-0.4,3.6-1
							C86.5,21.8,85.6,21.8,84.7,21.9z"/>
					</g>
					<g>
						<path class="st2" d="M82.1,23.5c0.1,0,0.1,0,0.2,0l-0.1-0.1C82.2,23.4,82.1,23.4,82.1,23.5z"/>
					</g>
					<g>
						<path class="st2" d="M79.7,25.6c-0.5,0.7-0.9,1.5-1.4,2.1c0.6-0.1,1.3-0.3,1.8-0.7c0.2-0.2,0.4-0.4,0.6-0.6
							c0.5-0.6,1-1.3,1.2-2.1c0.1-0.3,0.1-0.6,0.3-0.8c-0.2,0-0.5,0.1-0.7,0.3C80.7,24.2,80.1,24.9,79.7,25.6z"/>
					</g>
				</g>
				<g>
					<path class="st2" d="M76.6,10.9c0-0.1,0-0.2,0.1-0.2c-0.1,0.1-0.1,0.2-0.2,0.3L76.6,10.9z"/>
				</g>
				<g>
					<path class="st2" d="M77.6,7.7c-0.3,0.5-0.5,1-0.7,1.5c-0.1,0.3-0.1,0.6-0.2,0.8c0,0.2-0.1,0.4-0.1,0.5
						c0.1-0.1,0.2-0.2,0.3-0.3c0.3-0.3,0.8-0.6,1.1-0.9c0.4-0.4,0.7-1,0.9-1.6c0.2-0.6,0.2-1.2,0.3-1.8c-0.2,0-0.3,0.1-0.4,0.2
						C78.3,6.7,77.9,7.2,77.6,7.7z"/>
				</g>
				<g>
					<path class="st2" d="M74.2,6.4c-0.3-0.3-0.7-0.5-1.1-0.7c-0.2-0.1-0.3-0.2-0.5-0.3c-0.2-0.1-0.5-0.1-0.7-0.1
						c-0.4,0-0.8,0-1.2,0c0.1,0.4,0.5,0.6,0.8,0.8C72.8,6.7,74,8,75.3,8.4C75.1,7.9,74.7,6.8,74.2,6.4z"/>
				</g>
				<g>
					<path class="st2" d="M75.6,5.9c0,0.5,0.2,1.5,0.2,1.4c0.1-0.7,0.6-1.3,0.8-2c0.1-0.3,0.1-0.7,0.2-1.1c0-0.3,0.1-0.5,0.1-0.8
						c0-0.4-0.1-0.8-0.2-1.3C76,3.3,75.6,4.6,75.6,5.9z"/>
				</g>
			</g>
		</g>
		<g>
			<g>
				<g>
					<path class="st2" d="M99.1,110.4l2.1,2.2c0,0,2.5,0.6,4.1-1.9s1.3-7.2,1.3-7.2S99.1,104.8,99.1,110.4z"/>
					<path class="st3" d="M106.6,103.6L106.6,103.6c-0.1,0-1.9,0.3-3.8,1.3c-1.7,0.9-3.8,2.6-3.8,5.6h0.1c0-2.9,2.1-4.6,3.8-5.5
						c1.7-0.9,3.4-1.2,3.7-1.3c0,0.5,0.1,4.8-1.3,7.1c-1.5,2.4-4,1.8-4,1.8l0,0.1c0,0,0.3,0.1,0.7,0.1c0.9,0,2.4-0.3,3.4-1.9
						C106.8,108.4,106.6,103.7,106.6,103.6L106.6,103.6z"/>
				</g>
				<g>
					<path d="M100.5,110.7L100.5,110.7c1.6-2.5,5.9-6.7,5.9-6.7l-0.1-0.1C106.3,104,102,108.1,100.5,110.7z"/>
				</g>
				<g>
					<path d="M105.2,105.2L105.2,105.2c0,0.1,0.8,0,1.2-0.2l0-0.1C106,105.1,105.2,105.2,105.2,105.2z"/>
				</g>
				<g>
					<path d="M104.2,106.1L104.2,106.1c0.1,0.1,1.4,0,1.9-0.2l0-0.1C105.6,106,104.2,106.1,104.2,106.1z"/>
				</g>
				<g>
					<path d="M103.4,107L103.4,107c0,0.1,1.6,0.1,2.7-0.2l0-0.1C105,107,103.4,107,103.4,107z"/>
				</g>
				<g>
					<path d="M102.5,108L102.5,108c0,0.1,0.4,0.2,1.3,0.2c0.5,0,1.2,0,2.1-0.2l0-0.1C103.7,108.2,102.6,108,102.5,108z"/>
				</g>
				<g>
					<path d="M101.7,109.1L101.7,109.1c0,0.1,0.7,0.5,2.1,0.5c0.4,0,0.9-0.1,1.5-0.2l0-0.1C103,109.8,101.7,109.1,101.7,109.1z"/>
				</g>
				<g>
					<path d="M100.9,110.2L100.9,110.2c0,0.1,0.9,0.9,2.5,0.9c0.3,0,0.7,0,1.1-0.1l0-0.1C102.2,111.4,100.9,110.2,100.9,110.2z"/>
				</g>
				<g>
					<g>
						<path d="M104.6,105.7L104.6,105.7c0.1,0,0.2-1,0.4-1.3l-0.1,0C104.8,104.7,104.6,105.7,104.6,105.7z"/>
					</g>
					<g>
						<path d="M103.7,106.6L103.7,106.6c0.1,0,0.4-1.2,0.6-1.8l-0.1,0C104.1,105.3,103.7,106.5,103.7,106.6z"/>
					</g>
					<g>
						<path d="M102.9,107.5L102.9,107.5c0.1,0,0.3-1.4,0.7-2.4l-0.1,0C103.2,106.1,102.9,107.5,102.9,107.5z"/>
					</g>
					<g>
						<path d="M102.7,105.5c-0.5,2.1-0.5,3-0.5,3h0.1C102.2,108.5,102.2,107.5,102.7,105.5L102.7,105.5z"/>
					</g>
					<g>
						<path d="M101.5,106.4c-0.6,2.2-0.2,3.1-0.2,3.1l0.1,0C101.4,109.4,100.9,108.5,101.5,106.4L101.5,106.4z"/>
					</g>
					<g>
						<path d="M100.3,107.5L100.3,107.5c-0.7,2.1,0.2,3.3,0.2,3.3l0.1-0.1C100.6,110.7,99.8,109.6,100.3,107.5z"/>
					</g>
				</g>
			</g>
			<g>
				<g>
					<path class="st2" d="M94.3,101.6l0.3,3.1c0,0-1.2,2.3-4,1.9c-2.9-0.4-6.4-3.6-6.4-3.6S90,98,94.3,101.6z"/>
					<path class="st3" d="M84.2,103L84.2,103c0,0,1.5-1.3,3.4-2.1c1.8-0.7,4.4-1.2,6.7,0.7l-0.1,0.1c-2.2-1.8-4.8-1.4-6.6-0.7
						c-1.8,0.7-3.1,1.8-3.4,2c0.4,0.3,3.7,3.2,6.3,3.6c2.8,0.4,4-1.9,4-1.9l0.1,0c0,0-0.1,0.3-0.4,0.6c-0.6,0.7-1.7,1.6-3.7,1.3
						C87.8,106.2,84.3,103.1,84.2,103L84.2,103z"/>
				</g>
				<g>
					<path d="M93.6,102.9L93.6,102.9c-2.9-0.4-8.9,0.2-8.9,0.2l0-0.1C84.7,103,90.7,102.4,93.6,102.9z"/>
				</g>
				<g>
					<path d="M86.4,102.9L86.4,102.9c0,0.1-0.6,0.6-0.9,0.8l0-0.1C85.8,103.5,86.4,102.9,86.4,102.9z"/>
				</g>
				<g>
					<path d="M87.7,102.8L87.7,102.8c0,0.1-0.9,1-1.4,1.3l0-0.1C86.7,103.7,87.7,102.8,87.7,102.8z"/>
				</g>
				<g>
					<path d="M88.9,102.7L88.9,102.7c0,0.1-1,1.3-1.8,1.9l-0.1-0.1C87.9,103.9,88.9,102.7,88.9,102.7z"/>
				</g>
				<g>
					<path d="M90.2,102.7L90.2,102.7c0.1,0.1-0.1,0.5-0.7,1.1c-0.3,0.4-0.8,0.9-1.5,1.5l-0.1-0.1C89.7,103.8,90.2,102.7,90.2,102.7z
						"/>
				</g>
				<g>
					<path d="M91.6,102.7L91.6,102.7c0.1,0-0.1,0.9-0.9,1.9c-0.3,0.3-0.7,0.7-1.1,1l-0.1-0.1C91.3,104.3,91.6,102.8,91.6,102.7z"/>
				</g>
				<g>
					<path d="M92.9,102.9L92.9,102.9c0.1,0,0.1,1.2-0.9,2.5c-0.2,0.3-0.5,0.5-0.8,0.8l-0.1-0.1C93,104.7,92.9,102.9,92.9,102.9z"/>
				</g>
				<g>
					<g>
						<path d="M87.1,102.8L87.1,102.8c-0.1,0.1-0.9-0.5-1.2-0.6l0-0.1C86.3,102.3,87.1,102.8,87.1,102.8z"/>
					</g>
					<g>
						<path d="M88.3,102.7L88.3,102.7c-0.1,0.1-1.2-0.5-1.7-0.7l0-0.1C87.2,102.1,88.3,102.7,88.3,102.7z"/>
					</g>
					<g>
						<path d="M89.6,102.7L89.6,102.7c-0.1,0.1-1.3-0.7-2.3-1.1l0-0.1C88.4,102,89.6,102.7,89.6,102.7z"/>
					</g>
					<g>
						<path d="M88.2,101.2c1.9,0.9,2.6,1.6,2.6,1.6l-0.1,0.1C90.8,102.8,90.1,102.2,88.2,101.2L88.2,101.2z"/>
					</g>
					<g>
						<path d="M89.7,100.9c2.1,0.9,2.5,1.8,2.5,1.8l-0.1,0C92.1,102.7,91.7,101.8,89.7,100.9L89.7,100.9z"/>
					</g>
					<g>
						<path d="M91.3,100.7L91.3,100.7c2,0.8,2.4,2.2,2.4,2.3l-0.1,0C93.6,102.9,93.2,101.6,91.3,100.7z"/>
					</g>
				</g>
			</g>
			<g>
				<g>
					<path class="st2" d="M97,108l1.9,1c0,0,1.8-0.1,2.2-2.1c0.5-1.9-0.6-4.9-0.6-4.9S95.9,104.3,97,108z"/>
					<path class="st3" d="M100.5,101.9L100.5,101.9c0,0-1.2,0.6-2.2,1.6c-0.9,1-1.9,2.5-1.3,4.4l0.1,0c-0.6-1.9,0.4-3.4,1.3-4.3
						C99.2,102.7,100.3,102.1,100.5,101.9c0.1,0.4,1,3.2,0.6,5c-0.4,1.9-2.2,2-2.2,2v0.1c0,0,0.2,0,0.5-0.1c0.6-0.2,1.5-0.7,1.8-2
						C101.6,105,100.5,102,100.5,101.9L100.5,101.9z"/>
				</g>
				<g>
					<path d="M98,107.8L98,107.8c0.5-2,2.4-5.5,2.4-5.6l-0.1,0C100.4,102.3,98.4,105.8,98,107.8z"/>
				</g>
				<g>
					<path d="M99.9,103.3L99.9,103.3c0,0,0.5-0.2,0.7-0.3l0,0C100.4,103,99.9,103.3,99.9,103.3z"/>
				</g>
				<g>
					<path d="M99.5,104.1L99.5,104.1c0,0,0.9-0.3,1.2-0.5l0,0C100.3,103.7,99.5,104.1,99.5,104.1z"/>
				</g>
				<g>
					<path d="M99.1,104.9L99.1,104.9c0,0.1,1-0.3,1.7-0.7l0-0.1C100.1,104.5,99.1,104.9,99.1,104.9z"/>
				</g>
				<g>
					<path d="M98.8,105.7L98.8,105.7c0,0.1,0.3,0,0.9-0.2c0.3-0.1,0.8-0.3,1.3-0.5l0-0.1C99.6,105.6,98.8,105.7,98.8,105.7z"/>
				</g>
				<g>
					<path d="M98.4,106.5L98.4,106.5c0,0.1,0.6,0.2,1.5-0.1c0.3-0.1,0.6-0.2,0.9-0.4l0-0.1C99.4,106.8,98.4,106.5,98.4,106.5z"/>
				</g>
				<g>
					<path d="M98.2,107.4L98.2,107.4c0,0.1,0.8,0.4,1.8,0.1c0.2-0.1,0.5-0.2,0.7-0.3l0-0.1C99.3,107.9,98.2,107.4,98.2,107.4z"/>
				</g>
				<g>
					<g>
						<path d="M99.6,103.8L99.6,103.8c0.1,0-0.1-0.7,0-0.9l-0.1,0C99.5,103.1,99.6,103.7,99.6,103.8z"/>
					</g>
					<g>
						<path d="M99.2,104.5L99.2,104.5c0.1,0,0-0.9,0-1.3h-0.1C99.2,103.6,99.2,104.5,99.2,104.5z"/>
					</g>
					<g>
						<path d="M98.9,105.3L98.9,105.3c0.1,0-0.1-1-0.1-1.7h-0.1C98.8,104.3,98.9,105.3,98.9,105.3z"/>
					</g>
					<g>
						<path d="M98.3,104c0.1,1.4,0.3,2,0.3,2.1l0.1,0C98.7,106,98.4,105.4,98.3,104L98.3,104z"/>
					</g>
					<g>
						<path d="M97.7,104.8c0,1.5,0.5,2,0.5,2.1l0,0C98.3,106.8,97.8,106.3,97.7,104.8L97.7,104.8z"/>
					</g>
					<g>
						<path d="M97.2,105.8L97.2,105.8c0,1.5,0.8,2.1,0.8,2.1l0,0C98.1,107.8,97.3,107.3,97.2,105.8z"/>
					</g>
				</g>
			</g>
			<g>
				<g>
					<path class="st0" d="M88.1,89.2c-0.7-2.4-0.8-4.7-1-6.9c-0.2-3.1-0.3-6.3-2.1-9.9l1.6-0.8c1.9,4,2.1,7.3,2.3,10.6
						c0.1,2.2,0.2,4.3,0.9,6.5l0,0.1c1.6,5.2,5.9,18.3,16.5,27.9L105,118C94.2,108.1,89.8,94.8,88.1,89.2L88.1,89.2z"/>
				</g>
			</g>
			<g>
				<path class="st2" d="M83.5,72.7l4.8-1.6v0c0.2,0.8-0.3,1.6-1.1,1.9l-1.8,0.6C84.7,73.8,83.8,73.4,83.5,72.7L83.5,72.7z"/>
			</g>
			<g>
				<path class="st3" d="M81.7,71.3l7.3-2.4c0,0,0.7,2,0.7,2c0.1,0.3-1.5,1-3.5,1.7c-2,0.7-3.7,1-3.8,0.7
					C82.3,73.3,81.7,71.3,81.7,71.3z"/>
			</g>
			<g>
				<path class="st4" d="M85.2,69.6c2-0.7,3.7-1,3.8-0.7c0.1,0.3-1.5,1-3.5,1.7c-2,0.7-3.7,1-3.8,0.7C81.6,71,83.1,70.3,85.2,69.6z"
					/>
			</g>
			<g>
				<path class="st2" d="M84.1,66.5l5.1-1.7c0,0-1.1,1.3-1.1,3.8c0,0.3-0.2,0.5-0.5,0.6l-4.7,1.5c-0.3,0.1-0.6,0-0.8-0.2
					c-1.5-1.9-3.1-2.3-3.1-2.3L84.1,66.5z"/>
			</g>
			<g>
				<path class="st5" d="M76.1,62.5l12.2-4c0,0,1.8,5.4,1.8,5.5c0.2,0.8-2.3,2.2-5.6,3.3s-6.3,1.4-6.5,0.6
					C77.9,68,76.1,62.5,76.1,62.5z"/>
			</g>
			<g>
				<path class="st0" d="M81.7,59.1c3.4-1.1,6.3-1.4,6.5-0.6c0.2,0.8-2.3,2.2-5.6,3.3s-6.3,1.4-6.5,0.6
					C75.8,61.7,78.4,60.2,81.7,59.1z"/>
			</g>
			<g>
				<path class="st2" d="M77.2,55.4c0.4-0.1,0.9,0.1,1.1,0.5l1.8,5.4l-1.6,0.5l-1.8-5.4C76.5,56,76.8,55.6,77.2,55.4z"/>
			</g>
			<g>
				<path class="st2" d="M82.8,53.6c0.4-0.1,0.9,0.1,1.1,0.5l1.8,5.4L84,60.1l-1.8-5.4C82.1,54.2,82.4,53.7,82.8,53.6z"/>
			</g>
		</g>
		<g>
			<g>
				<g>
					<g>
						<path class="st6" d="M66.4,87.9c2.5-0.5,11.6-2.6,12.2-3.4c0.4-0.5,1.6-2.6,2.7-4.5c0.9-1.5,1.7-2.9,2.2-3.7
							c0.4-0.6,0.8-0.8,1.4-0.8c0.8,0,1.7,0.4,2.6,0.8c0.6,0.3,1.3,0.6,1.9,0.7c0.7,0.2,1.5,0.2,2.2,0.2c0.9,0,1.8,0,1.9,0.4
							c0,0.2,0,0.4-0.2,0.6c-0.5,0.6-1.7,0.9-3.1,0.9c-0.7,0-1.4-0.1-2-0.3c-0.7-0.2-1.2-0.3-1.6-0.3c-0.5,0-0.8,0.1-1,0.4
							c-0.2,0.3-0.2,0.6-0.2,0.6l0.1,0.3l0.3,0c0,0,0.4,0,0.9,0c1.3,0,4.2,0.2,4.4,2.1l0,0.1l0.1,0.1c0.1,0.1,1.6,1.3,0.9,2.8
							c-0.1,0.1,0,0.2,0.2,0.6c0.3,0.8,1.3,2.8,0.8,3.9c-0.1,0.3-0.4,0.5-0.8,0.7c-0.1,0.1-0.4,0.1-0.6,0.2
							c-0.8,0.3-1.9,0.8-2.6,0.8c-0.2,0-0.3,0-0.4-0.1c-0.1-0.1-0.1-0.2-0.1-0.4c0.1-0.6,1-1.1,1.7-1.4c0.5-0.3,0.9-0.4,0.9-0.7
							l0-0.1l-0.1-0.2c-0.1-0.1-0.2-0.3-0.2-0.5c-0.1-0.3-0.2-0.5-0.4-0.5h-0.1l-0.2,0.2c-3.2,4.1-6,6.2-8.3,6.2
							c-0.3,0-0.7-0.1-1-0.2l-0.1,0l-0.1,0.1c-5.6,3.2-10.4,5.4-11.7,6L66.4,87.9z"/>
						<path class="st0" d="M85,75.7c0.7,0,1.6,0.4,2.4,0.8c0.6,0.3,1.3,0.6,1.9,0.7c0.7,0.2,1.5,0.2,2.2,0.2c0.5,0,1.4,0,1.6,0.2
							c0,0.1,0,0.2-0.1,0.4c-0.4,0.5-1.6,0.8-2.9,0.8c-0.7,0-1.3-0.1-1.9-0.3c-0.7-0.2-1.3-0.3-1.7-0.3c-0.6,0-1,0.2-1.2,0.5
							c-0.2,0.3-0.3,0.6-0.2,0.8l0.1,0.5l0.5-0.1c0,0,0.4,0,0.9,0c1.2,0,4,0.2,4.1,1.8l0,0.2l0.2,0.2c0.1,0.1,1.4,1.2,0.8,2.5
							c-0.1,0.3,0,0.4,0.2,0.9c0.3,0.7,1.2,2.7,0.8,3.6c-0.1,0.2-0.3,0.4-0.6,0.5c-0.2,0.1-0.4,0.1-0.6,0.3
							c-0.7,0.3-1.8,0.8-2.5,0.8c-0.2,0-0.2,0-0.2,0l0,0c0,0,0-0.1,0-0.2c0.1-0.5,1-0.9,1.5-1.2c0.6-0.3,1-0.5,1.1-0.9
							c0.1-0.2,0-0.4-0.1-0.6c-0.1-0.1-0.1-0.3-0.2-0.4c-0.1-0.3-0.2-0.7-0.7-0.7c-0.1,0-0.3,0-0.5,0.3c-4,5.1-6.6,6.1-8.1,6.1
							c-0.3,0-0.6-0.1-0.9-0.1l-0.2-0.1l-0.2,0.1c-5.2,2.9-9.7,5.1-11.3,5.8l-2.4-10.7c4.5-1,11.4-2.6,12.1-3.5
							c0.4-0.5,1.6-2.5,2.8-4.6c0.9-1.5,1.7-2.9,2.1-3.6C84.1,75.9,84.5,75.7,85,75.7L85,75.7z M85,75.1c-0.7,0-1.2,0.2-1.7,1
							c-1.1,1.7-4.2,7.3-4.9,8.2s-12.4,3.4-12.4,3.4l2.7,11.9c0,0,5.4-2.4,12-6.1c0.3,0.1,0.7,0.2,1.1,0.2c2,0,4.8-1.5,8.5-6.3
							c0,0,0,0,0.1,0c0.1,0,0.2,0.5,0.4,0.9c0.2,0.4-2.5,0.9-2.6,2.2c-0.1,0.7,0.3,0.9,0.8,0.9c1,0,2.8-0.9,3.3-1.1
							c2.5-0.8-0.1-5.2,0-5.3c0.8-1.7-1-3.2-1-3.2c-0.2-2-3.1-2.3-4.7-2.3c-0.6,0-0.9,0-0.9,0s-0.1-0.6,0.9-0.6
							c0.4,0,0.9,0.1,1.6,0.3c0.7,0.2,1.4,0.3,2.1,0.3c1.9,0,3.7-0.7,3.6-1.8c-0.2-1-2.5-0.4-4.2-0.9C88.1,76.3,86.4,75.1,85,75.1
							L85,75.1z"/>
					</g>
				</g>
				<g>
					<path d="M90.6,84c-1.1,0.3-2.6,0.9-2.6,1c-0.1,0.1-0.2,0.2-0.1,0.3c0,0.1,0.1,0.1,0.2,0.1c0,0,0.1,0,0.1,0c0,0,1.5-0.7,2.6-0.9
						c0.9-0.2,1.4,0.4,1.4,0.5c0.1,0.1,0.2,0.1,0.3,0.1s0.1-0.2,0.1-0.3C92.3,84.3,91.6,83.7,90.6,84z"/>
				</g>
				<g>
					<path d="M91.5,81.5c-0.1,0-1.2-0.5-2.3-0.2c-1.1,0.3-2,0.5-2,0.5c-0.1,0-0.2,0.2-0.2,0.3c0,0.1,0.1,0.2,0.2,0.2c0,0,0,0,0.1,0
						c0,0,0.9-0.3,2-0.5c1-0.3,2.1,0.1,2.1,0.2c0.1,0.1,0.2,0,0.3-0.1C91.7,81.7,91.6,81.6,91.5,81.5z"/>
				</g>
			</g>
			<g>
				<path class="st0" d="M36.8,31.5c-9-2.1-11.3,4.4-11.3,4.4c-5.6-4.1-8,15.8-3.1,20.6c7.9,7.9,15.5,2,19.7-1.1
					c4.2-3.2,0.2-5.6,0.2-7.8s6-2.9,6.3-7.8s-1-7.3-1-7.3S43.3,33,36.8,31.5z"/>
				<path class="st0" d="M47.5,32.2c0,0-0.7,0.1-2,0.1c-1.9,0-4.9-0.2-8.7-1.1c-1.2-0.3-2.4-0.4-3.5-0.4c-5.4,0-7.5,3.7-8,4.7
					c-1.7-1.1-3.3-0.1-4.5,2.6c-2,4.8-2.2,15.1,1.2,18.6c2.7,2.7,5.6,4,8.6,4c4.5,0,8.5-3,11.2-5l0.2-0.2c3-2.3,2-4.3,1.1-5.9
					c-0.4-0.7-0.8-1.4-0.8-2.1c0-0.8,1-1.4,2.1-2.2c1.8-1.2,4-2.6,4.2-5.6c0.3-4.9-1-7.3-1-7.4C47.7,32.2,47.6,32.2,47.5,32.2z
					 M48.3,39.7c-0.2,2.8-2.3,4.2-4,5.3c-1.2,0.8-2.3,1.5-2.3,2.5c0,0.8,0.4,1.5,0.8,2.3c0.9,1.6,1.8,3.3-1,5.3l-0.2,0.2
					c-2.6,2-6.5,4.9-10.9,4.9c-2.9,0-5.7-1.3-8.3-3.9c-3.1-3.1-3.3-13-1.1-18.1c0.5-1.2,1.4-2.7,2.7-2.7c0.4,0,0.9,0.2,1.3,0.5
					c0.1,0,0.1,0.1,0.2,0c0.1,0,0.1-0.1,0.1-0.1c0.1-0.2,1.7-4.7,7.7-4.7c1,0,2.2,0.1,3.3,0.4c5.8,1.4,9.8,1.1,10.6,1
					C47.6,33.3,48.5,35.6,48.3,39.7z"/>
			</g>
			<g>
				<g>
					<path class="st6" d="M37.8,66.4c-1.8-0.2-9.7-0.8-12.9-0.9c0.1-1.5,0.7-8,0.6-10.4l11.9,4.4C37.3,60.3,37.2,63.5,37.8,66.4z"/>
					<path d="M25.8,55.6l11.3,4.1c0,1-0.1,3.7,0.4,6.4c-2.3-0.2-9-0.8-12.3-0.8C25.4,63.4,25.8,58.1,25.8,55.6L25.8,55.6z
						 M25.2,54.7c0.2,2.2-0.6,11.1-0.6,11.1c3.4,0,13.6,0.9,13.6,0.9c-0.8-3.6-0.5-7.5-0.5-7.5L25.2,54.7L25.2,54.7z"/>
				</g>
			</g>
			<g>
				<g>
					<path class="st7" d="M48.8,102.6c0.2-11.5-4.5-27.1-6.4-31.8c-2.9-7.3-20.3-8-20.3-8s-8.1,12.5-11.4,22
						c-3.3,9.6-5.3,32.4-5.3,32.4H49C49,117.2,48.5,114.1,48.8,102.6z"/>
					<path class="st0" d="M49,117.4H5.2l0-0.3c0-0.2,2-22.9,5.3-32.4c3.2-9.4,11.3-21.9,11.4-22l0.1-0.1l0.1,0
						c0.7,0,17.5,0.8,20.5,8.2c2.1,5.2,6.6,20.6,6.4,31.8c-0.2,11.3,0.2,14.5,0.2,14.5l0,0.3H49z M5.8,116.9h43
						c-0.1-1-0.4-4.7-0.2-14.3l0,0C48.8,91.2,44,75.4,42.2,71c-2.7-6.7-18.2-7.8-19.9-7.9c-0.8,1.3-8.2,13-11.3,21.8
						C8,93.8,6,114.3,5.8,116.9z"/>
				</g>
			</g>
			<g>
				<g>
					<path class="st6" d="M35,63c-6.8,0-8.6-4.8-8.6-7.6V55L26,55.1c-0.2,0-0.4,0.1-0.6,0.1c-1.7,0-3.1-1.4-3.1-3.1s1.4-3.1,3.1-3.1
						h0.3l0-0.3c0-1.2,0-2.5,0.1-3.5c0-0.6,0-1.1,0-1.5c0-2.3,1.1-4.5,3.7-4.5c1,0,1.8,0.6,2.8,1.3c1.1,0.9,2.4,1.8,4.4,2.1
						c0.5,0.1,1.1,0.1,1.6,0.1c1,0,1.8-0.1,2.4-0.2c0.4-0.1,0.7-0.1,1-0.1c0.4,0,0.7,0,0.7,1.4c0,0.8,0,1.3-0.1,1.7
						c-0.1,0.9-0.1,1.2,0.5,2.3c1.2,2,1.8,7-0.2,10.9c-1.2,2.5-3.3,3.9-6,4.2C36,63,35.5,63,35,63L35,63z"/>
					<path class="st0" d="M29.5,39.4c0.9,0,1.7,0.6,2.6,1.3c1.1,0.8,2.4,1.9,4.5,2.1c0.6,0.1,1.1,0.1,1.7,0.1c1,0,1.8-0.1,2.4-0.2
						c0.4,0,0.7-0.1,0.9-0.1c0.3,0,0.4,0,0.4,1.1c0,0.8,0,1.3-0.1,1.7c-0.1,1-0.1,1.4,0.6,2.5c1.2,2,1.6,7-0.2,10.6
						c-1.2,2.4-3.2,3.8-5.8,4c-0.5,0.1-1.1,0.1-1.6,0.1c-6.5,0-8.3-4.6-8.3-7.3v-0.7L26,54.9c-0.2,0-0.4,0.1-0.6,0.1
						c-1.5,0-2.8-1.3-2.8-2.8s1.3-2.8,2.8-2.8l0,0l0.6,0l0-0.6c0-1.2,0-2.5,0.1-3.5c0-0.6,0-1.1,0-1.5
						C26.1,42.1,26.9,39.4,29.5,39.4L29.5,39.4z M29.5,38.8c-2.8,0-4,2.5-4,4.8c0,1-0.2,3-0.1,5c0,0,0,0,0,0c-1.9,0-3.4,1.5-3.4,3.4
						s1.5,3.4,3.4,3.4c0.2,0,0.5,0,0.7-0.1c0,3.2,2.1,7.9,8.9,7.9c0.5,0,1.1,0,1.7-0.1c8.4-0.8,8.5-12,6.5-15.5
						c-0.8-1.4-0.4-1.3-0.4-3.9c0-1.3-0.3-1.7-1-1.7c-0.7,0-1.8,0.3-3.4,0.3c-0.5,0-1,0-1.6-0.1C33.1,41.8,32,38.8,29.5,38.8
						L29.5,38.8z"/>
				</g>
			</g>
			<g>
				<path d="M39.2,44.2c-0.1,0-0.2,0.1-0.2,0.3s0.1,0.2,0.3,0.2c0,0,1.3-0.2,2.5,0.6c0,0,0.1,0,0.1,0c0.1,0,0.2,0,0.2-0.1
					c0.1-0.1,0-0.2-0.1-0.3C40.7,44,39.3,44.2,39.2,44.2z"/>
			</g>
			<g>
				<path d="M34.8,43.8c-0.1,0-2-0.1-4.2,2c-0.1,0.1-0.1,0.2,0,0.3c0,0,0.1,0.1,0.2,0.1s0.1,0,0.2-0.1c2-2,3.8-1.9,3.8-1.9
					c0.1,0,0.2-0.1,0.2-0.2C35.1,43.9,35,43.8,34.8,43.8z"/>
			</g>
			<g>
				<path d="M33.5,47.8c-0.3,0-0.5,0.2-0.5,0.6s0.2,0.6,0.5,0.6c0.3,0,0.5-0.2,0.5-0.6S33.8,47.8,33.5,47.8z"/>
			</g>
			<g>
				<path d="M41,46.9c-0.3,0-0.5,0.2-0.5,0.6S40.7,48,41,48c0.3,0,0.5-0.2,0.5-0.6S41.3,46.9,41,46.9z"/>
			</g>
			<g>
				<path d="M38.5,49.9c-0.1,0-0.2,0-0.3,0.2c0,0.1,0,0.2,0.2,0.3c0.2,0,0.4,0.1,0.4,0.3c0.1,0.2-0.1,0.5-0.2,0.6
					c-0.1,0.1-0.1,0.2,0,0.3c0,0,0.1,0.1,0.2,0.1c0.1,0,0.1,0,0.2-0.1c0,0,0.5-0.5,0.3-1C39.2,50.2,38.9,50,38.5,49.9z"/>
			</g>
			<g>
				<g>
					<path class="st7" d="M33.3,99.3c5.2,5.8,11,12,11.9,12.3c1.8,0.6,27.3-5,27.3-5c3.1-7.9-1.8-21.2-1.8-21.2
						c-7.6,1.9-19,4.3-19,4.3s-3.3-9.6-9.2-17.8C40.8,69.8,25.9,91.2,33.3,99.3z"/>
					<path class="st0" d="M45.7,111.9c-0.2,0-0.4,0-0.5-0.1c-0.3-0.1-1.2-0.4-12-12.4l0.4-0.3c9.3,10.3,11.4,12.1,11.8,12.2
						c1.3,0.4,16.8-2.7,27-4.9c2.7-7.2-1.2-19-1.8-20.7C63,87.6,51.8,90,51.7,90.1l-0.2,0.1l-0.1-0.2c0-0.1-3.3-9.6-9.2-17.7
						l0.4-0.3c5.4,7.5,8.6,16.2,9.2,17.6c1.6-0.3,11.9-2.6,18.8-4.3l0.2-0.1l0.1,0.2c0.2,0.6,4.9,13.5,1.8,21.4l-0.1,0.1l-0.1,0
						C70.1,107.4,49.6,111.9,45.7,111.9z"/>
				</g>
			</g>
			<g>
				<path d="M36,55.7l0.4-0.1c0,0-0.4-1.2-1.5-1.7c-0.9-0.4-2.1-0.3-3.4,0.3l0.2,0.4c1.2-0.6,2.2-0.7,3-0.3
					C35.7,54.7,36,55.7,36,55.7z"/>
			</g>
		</g>
		<g>
			<g>
				<path class="st3" d="M79.6,20.5h16.5c0.9,0,1.7,0.8,1.7,1.7v17.2c0,0.9-0.8,1.7-1.7,1.7H79.6c-0.9,0-1.7-0.8-1.7-1.7V22.2
					C77.9,21.3,78.7,20.5,79.6,20.5z"/>
				<path class="st3" d="M77.8,22.2v17.2c0,1,0.8,1.8,1.8,1.8h16.5c1,0,1.8-0.8,1.8-1.8V22.2c0-1-0.8-1.8-1.8-1.8H79.6
					C78.6,20.4,77.8,21.2,77.8,22.2z M78.1,22.2c0-0.9,0.7-1.5,1.6-1.5h16.5c0.8,0,1.6,0.7,1.6,1.5v17.2c0,0.8-0.7,1.5-1.6,1.5H79.6
					c-0.8,0-1.6-0.7-1.6-1.5V22.2z"/>
			</g>
			<g>
				<path class="st5" d="M78.9,20.5h16.5c0.9,0,1.7,0.8,1.7,1.7v17.2c0,0.9-0.8,1.7-1.7,1.7H78.9c-0.9,0-1.7-0.8-1.7-1.7V22.2
					C77.2,21.3,78,20.5,78.9,20.5z"/>
				<path class="st8" d="M77.1,22.2v17.2c0,1,0.8,1.8,1.8,1.8h16.5c1,0,1.8-0.8,1.8-1.8V22.2c0-1-0.8-1.8-1.8-1.8H78.9
					C77.9,20.4,77.1,21.2,77.1,22.2z M77.3,22.2c0-0.9,0.7-1.5,1.6-1.5h16.5c0.8,0,1.6,0.7,1.6,1.5v17.2c0,0.8-0.7,1.5-1.6,1.5H78.9
					c-0.8,0-1.6-0.7-1.6-1.5V22.2z"/>
			</g>
			<g>
				<path class="st2" d="M82.3,27.4h9.6c1.6,0,2.8,1.3,2.8,2.8v1c0,1.6-1.3,2.8-2.8,2.8h-9.6c-1.6,0-2.8-1.3-2.8-2.8v-1
					C79.5,28.7,80.8,27.4,82.3,27.4z"/>
				<g>
					<path class="st3" d="M79.4,30.3v1c0,1.6,1.3,3,3,3h9.6c1.7,0,3-1.3,3-3v-1c0-1.6-1.3-3-3-3h-9.6C80.7,27.3,79.4,28.6,79.4,30.3
						z M79.7,30.3c0-1.5,1.2-2.7,2.7-2.7h9.6c1.5,0,2.7,1.2,2.7,2.7v1c0,1.5-1.2,2.7-2.7,2.7h-9.6c-1.5,0-2.7-1.2-2.7-2.7V30.3z"/>
				</g>
			</g>
			<g>
				<g>
					<path class="st3" d="M90.2,29.8c0.5,0,1,0.4,1,1c0,0.5-0.4,1-1,1s-1-0.4-1-1C89.2,30.2,89.7,29.8,90.2,29.8z"/>
					<path class="st3" d="M89.1,30.7c0,0.6,0.5,1.1,1.1,1.1s1.1-0.5,1.1-1.1s-0.5-1.1-1.1-1.1C89.6,29.6,89.1,30.1,89.1,30.7z
						 M89.4,30.7c0-0.5,0.4-0.8,0.8-0.8s0.8,0.4,0.8,0.8s-0.4,0.8-0.8,0.8C89.7,31.6,89.4,31.2,89.4,30.7z"/>
				</g>
				<g>
					<path class="st3" d="M84.1,29.8c0.5,0,1,0.4,1,1c0,0.5-0.4,1-1,1s-1-0.4-1-1C83.1,30.2,83.5,29.8,84.1,29.8z"/>
					<path class="st3" d="M82.9,30.7c0,0.6,0.5,1.1,1.1,1.1s1.1-0.5,1.1-1.1s-0.5-1.1-1.1-1.1C83.4,29.6,82.9,30.1,82.9,30.7z
						 M83.2,30.7c0-0.5,0.4-0.8,0.8-0.8s0.8,0.4,0.8,0.8s-0.4,0.8-0.8,0.8C83.6,31.6,83.2,31.2,83.2,30.7z"/>
				</g>
			</g>
		</g>
	</g>
</g>
</svg>
